<svg xmlns="https://www.w3.org/2000/svg" viewBox="0 0 483.1 482.5">
	<path fill="#333" d="M483.2 482.6H0V.2h483.2v482.4zM48 434.6h387.2V48.2H48v386.4z" />
	<path fill="#333" d="M188.6 83.7V138h-53.3v262.8h-53V83.7zM397 400.8h-64L230.1 235.1h60.6c6.6 0 13.3-1 19.6-3 6-1.8 11.5-4.9 16.2-8.9 4.7-4.1 8.5-9.3 10.9-15.1 2.7-6.1 4-13.3 4-21.8s-1.4-15.6-4.2-21.4c-2.6-5.8-6.4-11-11.2-15.1-4.8-4-10.3-7-16.2-8.9-6.1-2-12.5-3-19-3h-87V83.3h87.3c12.4 0 24.7 1.3 36.8 4 11.8 2.7 22.8 8.4 33 17.2 10.7 9.4 19.2 21 24.8 34.1 5.9 13.6 8.9 28.2 8.8 43-.1 14-2.4 27.9-7 41.1-4.7 13.9-11.5 25.5-20.4 34.8-7.4 7.9-14.7 13.7-21.9 17.2-8.1 3.9-16.6 6.9-25.3 9.1l77.1 117z" />
</svg>