<svg xmlns="http://www.w3.org/2000/svg" viewBox="0 0 25.1 32">
	<path fill="#FFF" d="M17.3 0H0v32h25.1V7.8L17.3 0zm-2.4 16.5c0 .3-.2.5-.5.5H9.1c-.3 0-.5-.2-.5-.5s.2-.5.5-.5h5.3c.3 0 .5.2.5.5zm-9.7-4l.2-.4c.2-.4.4-.6.7-.8l1.2-.6c-.5-.3-.9-.8-1.1-1.5-.4-.2-.6-.6-.6-1v-.4c0-.4.2-.7.4-.9.1-.3.1-.6.3-.9.1-.1.1-.2.1-.3 0-.1.1-.1.1-.1v-.3c0-.2-.1-.3-.1-.5s0-.3.1-.5c.2-.3.7-.3.9 0 0 .1.1.1.3.2.3.2.6.3 1 .2h.2c2.1 0 2.8 1.1 3 2.1.3.2.4.6.4.9v.4c0 .4-.2.8-.6 1.1-.2.7-.6 1.2-1.1 1.5l1.1.6c.3.2.6.5.8.8l.2.4-.4.3c-1 .7-2.2 1.1-3.4 1.1-1.2 0-2.4-.4-3.4-1.1l-.3-.3zm1.7 4c0 .1-.1.3-.2.4-.1.1-.2.2-.4.2-.1 0-.3-.1-.4-.2-.1-.1-.2-.2-.2-.4 0-.1.1-.3.2-.4.2-.2.6-.2.8 0 .2.2.2.3.2.4zm-1 2.7c0-.3.2-.5.5-.5h9.1c.3 0 .5.2.5.5s-.2.5-.5.5H6.4c-.3 0-.5-.2-.5-.5zm2.7 6.3c0 .5-.6.7-.9.4-.5-.4-1-.8-1.5-1.3-.5-.4.2-1.2.8-.8.2.2.4.4.7.6.1-1.2.5-2.4 1.7-3 .6-.3 1.1.6.5.9-1.2.6-1.2 2-1.3 3.2zm8-.8c-.1-.2-1.8.6-2.3.5-.4-.1-.7-.3-.9-.6-1.1.6-2.4.9-3.4-.1-.5-.5.3-1.3.8-.8.8.9 1.8.2 2.5-.3.2-.1.6-.1.7.2.6 1 1.9-.1 2.7-.1.4 0 .6.3.9.6.3.6-.6 1.1-1 .6zm1.9-5.1c-.1.1-.2.2-.4.2s-.3-.1-.4-.2c-.1-.1-.2-.2-.2-.4 0-.1.1-.3.2-.4.2-.2.6-.2.8 0 .1.1.2.2.2.4 0 .1-.1.3-.2.4zm2.7 0c-.1.1-.2.2-.4.2-.1 0-.3-.1-.4-.2-.1-.1-.2-.2-.2-.4 0-.1.1-.3.2-.4.2-.2.6-.2.8 0 .1.1.2.2.2.4-.1.1-.1.3-.2.4zm-.4-2.5h-3.7c-.3 0-.5-.2-.5-.5s.2-.5.5-.5h3.7c.3 0 .5.2.5.5s-.2.5-.5.5zm-4.3-8.6V1.1L24 8.5h-7.5z" /></svg>
