<?xml version="1.0" standalone="no"?>
<!DOCTYPE svg PUBLIC "-//W3C//DTD SVG 20010904//EN"
 "http://www.w3.org/TR/2001/REC-SVG-20010904/DTD/svg10.dtd">
<svg version="1.0" xmlns="http://www.w3.org/2000/svg"
 width="700.000000pt" height="700.000000pt" viewBox="0 0 700.000000 700.000000"
 preserveAspectRatio="xMidYMid meet">
<metadata>
Created by potrace 1.11, written by Peter Selinger 2001-2013
</metadata>
<g transform="translate(0.000000,700.000000) scale(0.100000,-0.100000)"
fill="#000000" stroke="none">
<path d="M0 3498 l0 -3498 3500 0 3500 0 0 3498 0 3498 -3500 0 -3500 0 0
-3498z m6305 0 l0 -2803 -2798 0 c-1859 0 -2801 3 -2805 10 -4 5 -7 1267 -7
2803 l0 2792 2805 0 2806 0 -1 -2802z"/>
<path d="M1200 5780 c-14 -8 -10 -4588 3 -4592 7 -2 179 -4 382 -4 l370 1 3
1906 2 1906 380 0 c210 0 383 3 386 6 5 4 7 413 5 712 l-1 70 -761 0 c-418 0
-764 -2 -769 -5z"/>
<path d="M2953 5400 c0 -215 3 -393 7 -395 4 -2 308 -5 676 -5 534 -1 683 -4
736 -15 218 -46 367 -140 467 -295 78 -120 109 -240 106 -410 -7 -348 -177
-573 -500 -662 -77 -21 -101 -22 -590 -26 -280 -2 -511 -5 -513 -7 -3 -3 109
-185 491 -800 55 -88 112 -180 127 -205 15 -25 50 -81 77 -125 27 -44 139
-224 248 -400 109 -176 211 -340 226 -365 16 -25 93 -148 172 -275 l142 -230
459 0 c252 0 459 2 461 5 1 3 -60 99 -136 213 -76 115 -139 212 -141 215 -2 4
-70 108 -152 232 -82 124 -201 304 -264 400 -63 96 -180 274 -260 394 -79 121
-146 225 -148 231 -3 7 33 22 93 39 223 65 382 155 528 301 111 110 129 132
190 225 96 148 172 339 224 565 21 91 38 279 35 388 -5 192 -31 333 -90 500
-120 339 -364 621 -659 762 -116 55 -231 88 -395 111 -19 3 -48 8 -65 11 -16
3 -372 8 -791 10 l-760 4 -1 -391z"/>
</g>
</svg>
