<svg version="1" xmlns="https://www.w3.org/2000/svg" width="933.333" height="933.333" viewBox="0 0 700 700"><path d="M0 350.2V700h700V.4H0v349.8zm630.5 0v280.3H350.7c-185.9 0-280.1-.3-280.5-1-.4-.5-.7-126.7-.7-280.3V70h561.1l-.1 280.2z"/><path d="M120 122c-1.4.8-1 458.8.3 459.2.7.2 17.9.4 38.2.4l37-.1.3-190.6.2-190.6h38c21 0 38.3-.3 38.6-.6.5-.4.7-41.3.5-71.2l-.1-7h-76.1c-41.8 0-76.4.2-76.9.5zM295.3 160c0 21.5.3 39.3.7 39.5.4.2 30.8.5 67.6.5 53.4.1 68.3.4 73.6 1.5 21.8 4.6 36.7 14 46.7 29.5 7.8 12 10.9 24 10.6 41-.7 34.8-17.7 57.3-50 66.2-7.7 2.1-10.1 2.2-59 2.6-28 .2-51.1.5-51.3.7-.3.3 10.9 18.5 49.1 80 5.5 8.8 11.2 18 12.7 20.5s5 8.1 7.7 12.5 13.9 22.4 24.8 40 21.1 34 22.6 36.5c1.6 2.5 9.3 14.8 17.2 27.5l14.2 23h45.9c25.2 0 45.9-.2 46.1-.5.1-.3-6-9.9-13.6-21.3-7.6-11.5-13.9-21.2-14.1-21.5-.2-.4-7-10.8-15.2-23.2-8.2-12.4-20.1-30.4-26.4-40-6.3-9.6-18-27.4-26-39.4-7.9-12.1-14.6-22.5-14.8-23.1-.3-.7 3.3-2.2 9.3-3.9 22.3-6.5 38.2-15.5 52.8-30.1 11.1-11 12.9-13.2 19-22.5 9.6-14.8 17.2-33.9 22.4-56.5 2.1-9.1 3.8-27.9 3.5-38.8-.5-19.2-3.1-33.3-9-50-12-33.9-36.4-62.1-65.9-76.2-11.6-5.5-23.1-8.8-39.5-11.1-1.9-.3-4.8-.8-6.5-1.1-1.6-.3-37.2-.8-79.1-1l-76-.4-.1 39.1z"/></svg>